<?xml version="1.0" standalone="no"?>
<!DOCTYPE svg PUBLIC "-//W3C//DTD SVG 20010904//EN"
 "http://www.w3.org/TR/2001/REC-SVG-20010904/DTD/svg10.dtd">
<svg version="1.0" xmlns="http://www.w3.org/2000/svg"
 width="225.000000pt" height="225.000000pt" viewBox="0 0 225.000000 225.000000"
 preserveAspectRatio="xMidYMid meet">

<g transform="translate(0.000000,225.000000) scale(0.100000,-0.100000)"
fill="#000000" stroke="none">
<path d="M910 2070 c0 -5 5 -10 10 -10 6 0 10 5 10 10 0 6 -4 10 -10 10 -5 0
-10 -4 -10 -10z"/>
<path d="M841 2031 c-12 -8 -11 -13 10 -30 14 -12 32 -19 44 -16 130 32 274
30 364 -4 113 -43 207 -142 253 -266 34 -93 31 -236 -7 -329 -58 -142 -182
-235 -341 -257 -131 -17 -181 -29 -230 -54 -33 -17 -52 -21 -60 -14 -8 6 -14
5 -18 -7 -3 -9 -12 -14 -19 -11 -8 3 -20 1 -28 -4 -12 -7 -12 -9 1 -9 11 -1
10 -4 -4 -15 -11 -8 -16 -15 -12 -15 4 0 22 11 40 25 55 42 51 28 -8 -26 -39
-35 -67 -74 -92 -125 -32 -64 -37 -85 -42 -168 -6 -116 17 -203 77 -288 21
-31 39 -58 38 -60 -1 -2 0 -2 2 -1 2 1 25 -13 52 -32 123 -84 324 -105 512
-54 39 11 117 43 173 70 56 28 105 49 110 48 25 -4 75 2 70 9 -3 5 -20 7 -38
5 -30 -4 -31 -3 -13 9 11 7 23 13 26 13 3 0 12 7 21 15 9 8 27 23 42 34 14 10
23 22 20 27 -2 4 9 15 26 24 18 9 30 23 30 36 0 11 8 22 18 25 9 3 28 11 41
17 19 9 20 13 8 15 -10 2 -17 7 -17 12 0 18 36 70 48 70 7 0 10 5 7 10 -12 19
6 50 28 50 20 1 21 1 4 11 -12 7 -15 14 -8 22 5 7 9 14 10 17 0 3 2 12 4 20 6
18 34 152 42 200 3 19 14 50 23 67 12 25 14 35 5 44 -9 9 -9 18 2 39 8 15 11
31 7 35 -4 3 2 13 12 21 20 14 19 14 -1 14 -22 0 -57 33 -46 44 4 4 2 10 -4
14 -6 4 -14 26 -18 50 -5 33 -3 44 9 48 28 11 18 33 -16 36 -35 3 -47 32 -20
48 15 8 15 10 -3 11 -11 1 -23 1 -27 0 -8 -1 -12 29 -9 67 2 19 -8 27 -31 23
-10 -1 -53 72 -50 87 2 7 -3 11 -10 10 -6 -2 -12 3 -13 10 0 6 -4 12 -10 13
-16 1 -55 41 -49 50 3 5 0 9 -6 9 -6 0 -8 5 -4 12 4 7 3 8 -5 4 -6 -4 -24 6
-42 23 -17 17 -34 31 -38 31 -4 0 -16 9 -26 20 -16 17 -16 20 -2 20 9 0 18 4
21 9 4 5 -9 6 -29 1 -20 -4 -35 -4 -35 1 0 5 -7 9 -15 9 -8 0 -24 9 -35 20
-11 11 -27 20 -35 20 -8 0 -32 9 -52 20 -21 11 -43 20 -49 20 -6 0 -17 7 -24
15 -7 9 -21 13 -30 10 -9 -3 -48 2 -86 11 -67 15 -228 15 -388 -2 -41 -4 -47
-2 -43 11 7 17 7 18 -12 6z m687 -164 c32 -5 39 -17 18 -32 -16 -12 -21 -12
-32 0 -8 7 -14 18 -14 24 0 6 -8 11 -17 11 -15 0 -16 2 -3 10 9 5 17 5 20 0 3
-5 16 -11 28 -13z m62 -43 c0 -8 -5 -12 -10 -9 -6 4 -8 11 -5 16 9 14 15 11
15 -7z m37 -31 c2 -6 -7 -10 -21 -9 -18 1 -22 4 -14 14 12 14 30 12 35 -5z
m-34 -57 c0 -11 4 -15 13 -12 8 3 14 1 14 -4 0 -5 -11 -9 -25 -8 -19 2 -25 8
-25 26 0 15 5 22 13 19 6 -2 11 -12 10 -21z m99 2 c26 1 31 -15 14 -48 l-14
-30 38 -6 c37 -6 38 -7 29 -38 -5 -17 -9 -32 -9 -33 0 -2 18 -6 40 -9 22 -4
43 -11 46 -15 5 -9 -11 -13 -31 -9 -5 1 -2 -7 8 -17 20 -22 12 -36 -38 -71
-36 -24 -44 -62 -14 -69 10 -3 19 -12 19 -20 0 -14 -32 -10 -55 7 -5 4 -19 4
-30 0 -25 -9 -53 -40 -36 -40 6 0 11 -10 10 -22 0 -13 -3 -17 -6 -10 -2 6 -9
10 -14 6 -13 -8 -11 -42 3 -46 17 -6 2 -38 -18 -38 -11 0 -15 6 -11 20 4 15
-1 22 -19 26 -13 3 -30 4 -37 1 -11 -4 -14 5 -12 37 2 65 28 91 41 41 3 -14
11 -25 16 -25 6 0 8 7 4 15 -10 26 11 61 43 75 35 14 42 48 15 74 -17 18 -54
22 -54 6 0 -5 -4 -10 -10 -10 -5 0 -10 8 -10 19 0 18 47 58 63 53 4 -1 12 9
19 23 6 13 15 22 19 19 17 -10 8 12 -16 39 -28 31 -50 27 -41 -8 8 -30 -1 -53
-25 -65 -15 -9 -21 -4 -34 24 -9 19 -15 43 -13 53 2 11 9 0 18 -29 17 -55 34
-53 25 3 -4 25 -3 39 4 39 6 0 11 9 11 21 0 11 5 17 10 14 15 -9 12 4 -5 21
-23 24 -18 35 13 27 15 -3 35 -6 44 -5z m-90 -60 c-6 -6 -15 -8 -19 -4 -4 4
-1 11 7 16 19 12 27 3 12 -12z m38 -215 c-1 -24 -2 -26 -11 -10 -5 9 -7 22 -4
27 10 17 15 11 15 -17z m-50 -38 c0 -8 -4 -15 -10 -15 -5 0 -10 7 -10 15 0 8
5 15 10 15 6 0 10 -7 10 -15z m154 -110 c-34 -14 -54 -7 -30 10 9 7 26 10 38
7 19 -5 18 -6 -8 -17z m-23 -99 c5 3 6 10 3 16 -5 8 -1 9 10 5 10 -4 23 -7 29
-7 8 0 7 -4 -1 -12 -7 -7 -12 -22 -12 -35 0 -19 -5 -23 -31 -23 -23 0 -32 -5
-36 -21 -3 -12 -11 -18 -19 -15 -8 3 -14 -1 -14 -9 0 -8 7 -15 15 -15 8 0 15
-5 15 -11 0 -6 -9 -8 -20 -4 -11 3 -20 2 -20 -3 0 -5 -6 -9 -14 -9 -7 0 -13 7
-12 16 1 8 -10 21 -24 28 -14 7 -19 13 -12 13 6 0 11 3 10 8 -1 4 4 19 11 33
10 20 18 25 37 21 17 -3 24 0 22 9 -2 8 7 15 20 17 12 2 23 9 23 15 1 7 3 4 6
-6 2 -9 9 -15 14 -11z m-161 -1 c0 -3 -4 -13 -9 -23 -5 -9 -12 -24 -14 -33 -5
-16 -47 -21 -48 -6 0 14 45 66 59 66 6 1 12 -1 12 -4z m241 -78 c-10 -9 -11
-8 -5 6 3 10 9 15 12 12 3 -3 0 -11 -7 -18z m-611 -131 c0 -7 -7 -19 -15 -26
-9 -7 -14 -19 -11 -27 4 -8 1 -11 -5 -7 -6 3 -9 15 -6 25 3 12 0 19 -9 19 -8
0 -14 -7 -14 -15 0 -17 -16 -20 -25 -6 -9 15 33 33 57 25 17 -5 20 -3 15 10
-4 9 -2 16 3 16 6 0 10 -6 10 -14z m-160 -13 c0 -17 -18 -16 -35 1 -12 12 -11
14 10 12 14 0 25 -7 25 -13z m550 -13 c0 -5 -4 -10 -10 -10 -5 0 -10 5 -10 10
0 6 5 10 10 10 6 0 10 -4 10 -10z m-40 -20 c0 -5 8 -11 18 -13 14 -4 14 -5 -3
-6 -11 0 -26 8 -32 19 -11 16 -10 18 2 14 8 -4 15 -10 15 -14z m-420 -20 c0
-5 -2 -10 -4 -10 -3 0 -8 5 -11 10 -3 6 -1 10 4 10 6 0 11 -4 11 -10z m387
-15 c-15 -16 -22 -11 -13 10 3 9 10 13 16 10 6 -4 5 -11 -3 -20z m-1 -21 c14
5 15 4 4 -9 -16 -20 -40 -2 -39 29 0 20 1 20 10 -3 6 -16 14 -21 25 -17z
m-381 6 c-3 -5 -12 -10 -18 -10 -7 0 -6 4 3 10 19 12 23 12 15 0z m365 -79
c-5 -11 -7 -27 -4 -36 6 -15 4 -15 -14 -4 -18 12 -19 14 -5 36 18 28 38 31 23
4z m-557 -62 c6 6 16 11 21 11 6 0 0 -7 -12 -16 -25 -17 -30 -39 -7 -30 8 3
15 0 15 -5 0 -6 -9 -9 -20 -6 -11 3 -20 0 -20 -6 0 -6 -9 -1 -20 11 -12 12
-25 22 -30 22 -11 0 -1 32 14 42 6 4 19 -2 29 -13 14 -15 22 -18 30 -10z m217
16 c42 -22 60 -53 60 -106 0 -38 -6 -53 -29 -78 -24 -26 -36 -31 -75 -31 -36
0 -52 6 -77 28 -27 24 -32 36 -33 75 -1 50 23 93 65 114 32 17 54 16 89 -2z
m-202 -116 c-14 -8 -15 -15 -7 -36 8 -21 6 -30 -7 -42 -15 -15 -16 -14 -10 11
3 15 2 29 -3 32 -17 11 1 46 23 46 19 -1 19 -2 4 -11z m497 -59 c-3 -5 -11
-10 -16 -10 -6 0 -7 5 -4 10 3 6 11 10 16 10 6 0 7 -4 4 -10z m445 0 c0 -5 -4
-10 -10 -10 -5 0 -10 5 -10 10 0 6 5 10 10 10 6 0 10 -4 10 -10z m-1042 -40
c11 -18 10 -20 -10 -20 -12 0 -18 3 -15 7 4 3 2 12 -4 20 -9 10 -8 13 2 13 8
0 20 -9 27 -20z m49 -22 c-3 -8 -6 -5 -6 6 -1 11 2 17 5 13 3 -3 4 -12 1 -19z
m26 -46 c-5 -21 -6 -21 -18 -5 -11 15 -11 19 3 24 22 8 22 7 15 -19z m-63 -77
c0 -5 -5 -3 -10 5 -5 8 -10 20 -10 25 0 6 5 3 10 -5 5 -8 10 -19 10 -25z m137
-4 c15 -20 16 -31 2 -31 -5 0 -7 -5 -4 -11 4 -6 -2 -5 -14 3 -24 15 -28 30 -6
22 8 -4 15 -1 15 5 0 7 -12 10 -26 9 -19 -2 -27 2 -29 14 -3 15 2 17 23 11 15
-3 32 -13 39 -22z m-101 -58 c-7 -7 -26 7 -26 19 0 6 6 6 15 -2 9 -7 13 -15
11 -17z m139 -4 c5 9 10 9 20 1 7 -6 20 -8 29 -4 12 5 15 2 10 -10 -4 -11 -15
-16 -33 -13 -39 6 -62 18 -55 29 4 6 9 6 14 -2 6 -9 9 -9 15 -1z m-90 -9 c3
-6 -1 -7 -9 -4 -18 7 -21 14 -7 14 6 0 13 -4 16 -10z"/>
<path d="M1695 1720 c3 -5 8 -10 11 -10 2 0 4 5 4 10 0 6 -5 10 -11 10 -5 0
-7 -4 -4 -10z"/>
<path d="M1507 1173 c-4 -3 -7 -11 -7 -17 0 -6 5 -5 12 2 6 6 9 14 7 17 -3 3
-9 2 -12 -2z"/>
<path d="M1074 654 c-9 -36 15 -60 45 -45 23 13 28 40 9 59 -21 21 -47 14 -54
-14z"/>
<path d="M1155 620 c-3 -5 -1 -10 4 -10 6 0 11 5 11 10 0 6 -2 10 -4 10 -3 0
-8 -4 -11 -10z"/>
<path d="M815 1990 c-3 -5 -1 -10 4 -10 6 0 11 5 11 10 0 6 -2 10 -4 10 -3 0
-8 -4 -11 -10z"/>
<path d="M830 1970 c-8 -5 -10 -10 -5 -10 6 0 17 5 25 10 8 5 11 10 5 10 -5 0
-17 -5 -25 -10z"/>
<path d="M620 1940 c0 -5 5 -10 10 -10 6 0 10 5 10 10 0 6 -4 10 -10 10 -5 0
-10 -4 -10 -10z"/>
<path d="M713 1930 c1 -15 5 -16 27 -7 40 17 41 22 5 24 -27 1 -33 -2 -32 -17z"/>
<path d="M605 1900 c-3 -5 -1 -10 4 -10 6 0 11 5 11 10 0 6 -2 10 -4 10 -3 0
-8 -4 -11 -10z"/>
<path d="M650 1900 c0 -16 17 -19 34 -7 14 11 13 12 -9 13 -14 1 -25 -2 -25
-6z"/>
<path d="M572 1856 c-18 -14 -20 -21 -11 -27 14 -8 29 -1 66 28 l23 18 -27 0
c-15 0 -37 -8 -51 -19z"/>
<path d="M1180 1840 c0 -5 7 -10 15 -10 8 0 15 5 15 10 0 6 -7 10 -15 10 -8 0
-15 -4 -15 -10z"/>
<path d="M500 1780 c0 -11 -4 -20 -10 -20 -5 0 -10 -4 -10 -9 0 -6 -11 -22
-25 -37 -21 -22 -27 -25 -40 -14 -17 14 -21 0 -4 -17 16 -16 1 -37 -15 -24
-16 13 -27 4 -19 -16 8 -21 -18 -64 -45 -74 -20 -8 -23 -15 -19 -36 3 -18 -2
-37 -15 -55 -13 -20 -15 -28 -6 -27 7 0 28 32 47 72 35 75 75 131 147 207 36
38 40 47 28 58 -12 11 -14 9 -14 -8z"/>
<path d="M1065 1770 c-3 -5 1 -10 9 -10 9 0 16 5 16 10 0 6 -4 10 -9 10 -6 0
-13 -4 -16 -10z"/>
<path d="M345 1760 c3 -5 8 -10 11 -10 2 0 4 5 4 10 0 6 -5 10 -11 10 -5 0 -7
-4 -4 -10z"/>
<path d="M387 1729 c7 -7 15 -10 18 -7 3 3 -2 9 -12 12 -14 6 -15 5 -6 -5z"/>
<path d="M1180 1720 c0 -5 5 -10 10 -10 6 0 10 5 10 10 0 6 -4 10 -10 10 -5 0
-10 -4 -10 -10z"/>
<path d="M905 1710 c-3 -5 -1 -10 4 -10 6 0 11 5 11 10 0 6 -2 10 -4 10 -3 0
-8 -4 -11 -10z"/>
<path d="M1034 1701 c-18 -11 -35 -24 -39 -30 -3 -6 -10 -9 -14 -7 -3 3 -7 -3
-8 -12 -1 -9 -5 -40 -9 -69 -5 -42 -2 -60 13 -90 11 -21 18 -45 16 -53 -3 -11
-2 -12 4 -3 7 10 19 8 51 -8 94 -47 202 29 202 143 0 112 -124 185 -216 129z
m56 -209 c0 -13 -12 -22 -22 -16 -10 6 -1 24 13 24 5 0 9 -4 9 -8z"/>
<path d="M923 1654 c-8 -21 13 -42 28 -27 13 13 5 43 -11 43 -6 0 -13 -7 -17
-16z"/>
<path d="M345 1619 c-11 -17 1 -21 15 -4 8 9 8 15 2 15 -6 0 -14 -5 -17 -11z"/>
<path d="M1350 1550 c0 -5 5 -10 10 -10 6 0 10 5 10 10 0 6 -4 10 -10 10 -5 0
-10 -4 -10 -10z"/>
<path d="M1284 1526 c-8 -21 3 -36 27 -36 15 0 20 6 17 22 -4 27 -35 37 -44
14z"/>
<path d="M260 1510 c0 -5 5 -10 10 -10 6 0 10 5 10 10 0 6 -4 10 -10 10 -5 0
-10 -4 -10 -10z"/>
<path d="M916 1472 c-3 -6 -1 -14 5 -17 15 -10 25 3 12 16 -7 7 -13 7 -17 1z"/>
<path d="M231 1411 c-8 -5 -9 -11 -3 -15 5 -3 12 1 16 9 6 17 6 18 -13 6z"/>
<path d="M281 1404 c0 -11 3 -14 6 -6 3 7 2 16 -1 19 -3 4 -6 -2 -5 -13z"/>
<path d="M1015 1390 c-3 -5 -1 -10 4 -10 6 0 11 5 11 10 0 6 -2 10 -4 10 -3 0
-8 -4 -11 -10z"/>
<path d="M226 1371 c-4 -7 -5 -15 -2 -18 9 -9 19 4 14 18 -4 11 -6 11 -12 0z"/>
<path d="M261 1362 c-13 -25 -14 -32 -2 -32 9 0 23 41 16 48 -2 2 -8 -5 -14
-16z"/>
<path d="M1320 1340 c0 -5 5 -10 10 -10 6 0 10 5 10 10 0 6 -4 10 -10 10 -5 0
-10 -4 -10 -10z"/>
<path d="M247 1306 c-4 -10 -5 -21 -2 -24 9 -9 17 6 13 25 -3 17 -4 17 -11 -1z"/>
<path d="M915 1310 c-3 -5 1 -10 9 -10 9 0 16 5 16 10 0 6 -4 10 -9 10 -6 0
-13 -4 -16 -10z"/>
<path d="M1046 1303 c-6 -14 -5 -15 5 -6 7 7 10 15 7 18 -3 3 -9 -2 -12 -12z"/>
<path d="M1110 1150 c0 -5 -13 -8 -28 -6 -16 2 -36 -2 -45 -9 -14 -10 -7 -11
36 -7 56 5 78 16 53 25 -9 4 -16 2 -16 -3z"/>
<path d="M232 1130 c0 -14 2 -19 5 -12 2 6 2 18 0 25 -3 6 -5 1 -5 -13z"/>
<path d="M197 1103 c-10 -9 -9 -23 2 -23 5 0 11 7 15 15 5 15 -5 20 -17 8z"/>
<path d="M212 1071 c-16 -23 -19 -31 -8 -31 7 0 16 -9 19 -20 6 -22 -8 -28
-17 -7 -3 6 -3 2 0 -10 3 -13 1 -23 -4 -23 -19 0 1 -42 23 -50 26 -10 47 -61
52 -125 1 -22 4 -47 4 -55 1 -8 6 -21 12 -27 5 -7 6 -13 1 -13 -5 0 2 -7 14
-16 12 -8 22 -21 22 -27 0 -34 22 -87 37 -87 11 0 9 -5 -8 -19 -22 -18 -23
-21 -7 -37 19 -19 38 -11 38 18 0 15 4 18 18 13 9 -4 22 -8 28 -9 22 -4 46
-37 41 -57 -4 -16 -3 -18 8 -9 8 7 20 8 27 4 7 -5 -9 17 -36 49 -27 31 -53 54
-57 51 -4 -2 -11 1 -15 7 -4 8 -3 9 4 5 19 -11 14 -2 -24 55 -72 106 -117 228
-138 372 l-11 79 -23 -31z"/>
<path d="M746 971 c5 -23 2 -29 -18 -35 -18 -5 -20 -8 -9 -15 10 -6 21 -1 37
18 12 14 18 28 13 29 -5 2 -9 10 -9 18 0 8 -4 14 -10 14 -5 0 -7 -13 -4 -29z"/>
<path d="M590 960 c0 -5 5 -10 10 -10 6 0 10 5 10 10 0 6 -4 10 -10 10 -5 0
-10 -4 -10 -10z"/>
<path d="M620 940 c0 -5 5 -10 10 -10 6 0 10 5 10 10 0 6 -4 10 -10 10 -5 0
-10 -4 -10 -10z"/>
<path d="M711 891 c-7 -5 -15 -26 -17 -47 -1 -22 0 -32 3 -24 3 8 12 30 19 48
7 17 12 32 11 32 -1 0 -8 -4 -16 -9z"/>
<path d="M676 791 c-4 -7 -5 -15 -2 -18 9 -9 19 4 14 18 -4 11 -6 11 -12 0z"/>
<path d="M661 734 c11 -14 11 -18 -4 -29 -9 -7 -17 -16 -17 -20 0 -4 8 -1 17
6 14 12 16 12 11 -1 -3 -8 -2 -24 3 -35 5 -14 8 -1 8 38 1 46 -2 57 -15 57
-14 0 -14 -2 -3 -16z"/>
<path d="M614 659 c-8 -14 18 -31 30 -19 9 9 0 30 -14 30 -5 0 -12 -5 -16 -11z"/>
<path d="M646 538 c3 -4 12 -8 20 -8 8 0 13 -4 10 -9 -3 -5 3 -11 13 -14 14
-3 17 0 14 13 -3 11 -17 20 -33 22 -16 2 -27 1 -24 -4z"/>
<path d="M684 486 c24 -19 32 -56 13 -56 -8 0 -14 -7 -14 -15 0 -15 9 -12 38
13 14 12 15 20 7 38 -6 13 -15 24 -19 24 -4 0 -16 3 -26 6 -16 5 -16 4 1 -10z"/>
<path d="M557 443 c5 -12 2 -15 -10 -10 -24 9 -21 -12 5 -34 24 -21 34 -23 43
-9 9 15 25 2 18 -15 -6 -18 11 -20 24 -2 8 9 -3 22 -38 49 -29 22 -46 31 -42
21z"/>
<path d="M440 439 c0 -5 5 -7 10 -4 6 3 10 8 10 11 0 2 -4 4 -10 4 -5 0 -10
-5 -10 -11z"/>
<path d="M500 440 c-9 -6 -10 -10 -3 -10 6 0 15 5 18 10 8 12 4 12 -15 0z"/>
<path d="M740 420 c0 -21 16 -44 23 -33 4 6 0 19 -8 29 -11 15 -14 16 -15 4z"/>
<path d="M630 415 c0 -2 10 -10 23 -16 20 -11 21 -11 8 4 -13 16 -31 23 -31
12z"/>
<path d="M510 369 c0 -5 5 -7 10 -4 6 3 10 8 10 11 0 2 -4 4 -10 4 -5 0 -10
-5 -10 -11z"/>
<path d="M717 334 c6 -15 23 -19 23 -5 0 5 -7 11 -14 14 -10 4 -13 1 -9 -9z"/>
<path d="M670 321 c0 -20 13 -35 23 -25 7 8 -4 44 -14 44 -5 0 -9 -9 -9 -19z"/>
<path d="M856 295 c-3 -8 -12 -15 -20 -15 -7 0 -16 -6 -19 -14 -5 -11 0 -13
25 -5 30 8 52 4 44 -9 -2 -4 3 -13 12 -21 13 -13 14 -12 8 13 -6 25 -5 27 14
21 33 -11 23 3 -19 25 -33 16 -40 17 -45 5z"/>
<path d="M775 240 c3 -5 8 -10 11 -10 2 0 4 5 4 10 0 6 -5 10 -11 10 -5 0 -7
-4 -4 -10z"/>
<path d="M975 240 c-3 -6 1 -7 9 -4 18 7 21 14 7 14 -6 0 -13 -4 -16 -10z"/>
<path d="M1035 190 c3 -5 8 -10 11 -10 2 0 4 5 4 10 0 6 -5 10 -11 10 -5 0 -7
-4 -4 -10z"/>
</g>
</svg>
